<svg width="222" height="122" viewBox="0 0 222 122" fill="none" xmlns="http://www.w3.org/2000/svg">
<circle cx="198.5" cy="4.5" r="4.5" fill="#0078AD"/>
<circle cx="198.5" cy="26.5" r="4.5" fill="#0078AD"/>
<circle cx="198.5" cy="48.5" r="4.5" fill="#000093"/>
<circle cx="198.5" cy="70.5" r="4.5" fill="#000093"/>
<circle cx="198.5" cy="92.5" r="4.5" fill="#000093"/>
<circle cx="22.5" cy="114.5" r="4.5" fill="#6789F4"/>
<circle cx="44.5" cy="114.5" r="4.5" fill="#000093"/>
<circle cx="66.5" cy="114.5" r="4.5" fill="#6789F4"/>
<circle cx="88.5" cy="114.5" r="4.5" fill="#6789F4"/>
<circle cx="110.5" cy="114.5" r="4.5" fill="#6789F4"/>
<circle cx="132.5" cy="114.5" r="4.5" fill="#0078AD"/>
<circle cx="154.5" cy="114.5" r="4.5" fill="#6789F4"/>
<circle cx="176.5" cy="114.5" r="4.5" fill="#0078AD"/>
<circle cx="198.5" cy="114.5" r="4.5" fill="#6789F4"/>
<circle cx="22.5" cy="4.5" r="4.5" fill="#0078AD"/>
<circle cx="44.5" cy="4.5" r="4.5" fill="#000093"/>
<circle cx="66.5" cy="4.5" r="4.5" fill="#6789F4"/>
<circle cx="88.5" cy="4.5" r="4.5" fill="#0078AD"/>
<circle cx="110.5" cy="4.5" r="4.5" fill="#000093"/>
<circle cx="132.5" cy="4.5" r="4.5" fill="#6789F4"/>
<circle cx="154.5" cy="4.5" r="4.5" fill="#0078AD"/>
<circle cx="176.5" cy="4.5" r="4.5" fill="#000093"/>
<circle cx="22.5" cy="26.5" r="4.5" fill="#000093"/>
<circle cx="44.5" cy="26.5" r="4.5" fill="#6789F4"/>
<circle cx="66.5" cy="26.5" r="4.5" fill="#6789F4"/>
<circle cx="88.5" cy="26.5" r="4.5" fill="#0078AD"/>
<circle cx="110.5" cy="26.5" r="4.5" fill="#0078AD"/>
<circle cx="132.5" cy="26.5" r="4.5" fill="#6789F4"/>
<circle cx="154.5" cy="26.5" r="4.5" fill="#000093"/>
<circle cx="176.5" cy="26.5" r="4.5" fill="#000093"/>
<circle cx="22.5" cy="48.5" r="4.5" fill="#000093"/>
<circle cx="44.5" cy="48.5" r="4.5" fill="#0078AD"/>
<circle cx="66.5" cy="48.5" r="4.5" fill="#0078AD"/>
<circle cx="88.5" cy="48.5" r="4.5" fill="#6789F4"/>
<circle cx="110.5" cy="48.5" r="4.5" fill="#000093"/>
<circle cx="132.5" cy="48.5" r="4.5" fill="#6789F4"/>
<circle cx="154.5" cy="48.5" r="4.5" fill="#0078AD"/>
<circle cx="176.5" cy="48.5" r="4.5" fill="#000093"/>
<circle cx="22.5" cy="70.5" r="4.5" fill="#0078AD"/>
<circle cx="44.5" cy="70.5" r="4.5" fill="#6789F4"/>
<circle cx="66.5" cy="70.5" r="4.5" fill="#000093"/>
<circle cx="88.5" cy="70.5" r="4.5" fill="#000093"/>
<circle cx="110.5" cy="70.5" r="4.5" fill="#6789F4"/>
<circle cx="132.5" cy="70.5" r="4.5" fill="#000093"/>
<circle cx="154.5" cy="70.5" r="4.5" fill="#6789F4"/>
<circle cx="176.5" cy="70.5" r="4.5" fill="#6789F4"/>
<circle cx="22.5" cy="92.5" r="4.5" fill="#000093"/>
<circle cx="44.5" cy="92.5" r="4.5" fill="#6789F4"/>
<circle cx="66.5" cy="92.5" r="4.5" fill="#6789F4"/>
<circle cx="88.5" cy="92.5" r="4.5" fill="#000093"/>
<circle cx="110.5" cy="92.5" r="4.5" fill="#000093"/>
<circle cx="132.5" cy="92.5" r="4.5" fill="#6789F4"/>
<circle cx="154.5" cy="92.5" r="4.5" fill="#6789F4"/>
<circle cx="176.5" cy="92.5" r="4.5" fill="#0078AD"/>
</svg>
